<?xml version="1.0" encoding="UTF-8"?>
<svg id="Layer_1" xmlns="http://www.w3.org/2000/svg" version="1.1" viewBox="0 0 2040 431.07">
  <!-- Generator: Adobe Illustrator 29.5.0, SVG Export Plug-In . SVG Version: 2.1.0 Build 137)  -->
  <defs>
    <style>
      .st0 {
        fill: #fff;
      }
    </style>
  </defs>
  <g>
    <path class="st0" d="M627.54,286.09c-9.1,0-17.22-1.54-24.36-4.63-7.15-3.08-13.32-7.22-18.51-12.42v67.72c0,4.87-1.71,8.6-5.12,11.21-3.41,2.6-7.23,3.9-11.45,3.9s-8.04-1.3-11.45-3.9c-3.41-2.6-5.12-6.33-5.12-11.21v-180.27c0-5.52,1.71-9.66,5.12-12.42,3.41-2.76,7.22-4.14,11.45-4.14,3.9,0,7.47,1.22,10.72,3.65,3.24,2.44,5.19,5.93,5.85,10.48,5.19-4.87,11.37-8.85,18.51-11.94,7.14-3.08,15.26-4.63,24.36-4.63,14.29,0,26.87,3.17,37.76,9.5,10.88,6.33,19.41,15.03,25.58,26.07,6.17,11.05,9.26,23.55,9.26,37.52s-3.09,27.21-9.26,38.73c-6.17,11.53-14.7,20.55-25.58,27.04-10.89,6.49-23.47,9.74-37.76,9.74ZM624.62,255.89c12.67,0,22.9-4.14,30.7-12.42,7.8-8.28,11.69-19.25,11.69-32.89s-3.9-23.39-11.69-31.18c-7.8-7.8-18.03-11.69-30.7-11.69s-22.09,3.9-29.23,11.69c-7.15,7.8-10.72,18.19-10.72,31.18,0,13.64,3.57,24.6,10.72,32.89,7.14,8.28,16.89,12.42,29.23,12.42Z"/>
    <path class="st0" d="M801.97,286.09c-24.36,0-43.36-6.98-57-20.95-13.64-13.96-20.46-32.8-20.46-56.52,0-20.78,6.9-37.84,20.71-51.16,13.8-13.31,31.59-19.98,53.35-19.98s38,6.09,50.67,18.27c12.67,12.18,19,27.21,19,45.07,0,7.15-1.87,12.51-5.6,16.08-3.74,3.58-8.53,5.36-14.37,5.36h-84.78c-3.25,0-4.39,1.79-3.41,5.36,2.6,9.1,7.87,16.16,15.83,21.19,7.96,5.04,16.97,7.55,27.04,7.55,7.47,0,14.69-.97,21.68-2.92,6.98-1.95,13.07-4.87,18.27-8.77,1.62-1.29,3.73-1.95,6.33-1.95,3.57,0,6.82,1.55,9.74,4.63,2.92,3.09,4.38,6.74,4.38,10.96,0,1.95-.33,3.9-.97,5.85-.65,1.95-2.12,3.9-4.39,5.85-8.45,6.17-17.46,10.4-27.04,12.67-9.58,2.27-19.25,3.41-28.99,3.41ZM830.23,196.93c1.95,0,2.92-.97,2.92-2.92,0-7.47-3.33-13.96-9.99-19.49-6.66-5.52-14.86-8.28-24.6-8.28-8.45,0-16.49,2.28-24.12,6.82-7.64,4.55-12.26,10.56-13.89,18.03v.49c-.33,1.3-.41,2.44-.24,3.41.16.97,1.54,1.46,4.14,1.46l65.77.49Z"/>
    <path class="st0" d="M930.6,209.11v61.88c0,4.87-1.71,8.61-5.12,11.21-3.41,2.6-7.23,3.9-11.45,3.9s-8.04-1.3-11.45-3.9c-3.41-2.6-5.12-6.33-5.12-11.21v-114.5c0-5.52,1.71-9.66,5.12-12.42,3.41-2.76,7.22-4.14,11.45-4.14s8.04,1.39,11.45,4.14c3.41,2.76,5.12,6.9,5.12,12.42v1.95c4.55-6.17,10.48-11.21,17.78-15.1,7.31-3.9,15.02-5.85,23.14-5.85,3.9,0,7.8.49,11.69,1.46,3.9.97,6.82,2.92,8.77,5.85s2.92,6.17,2.92,9.74c0,4.23-1.39,8.04-4.14,11.45-2.76,3.41-6.75,5.12-11.94,5.12-2.28,0-4.63-.32-7.06-.97-2.44-.65-5.44-.97-9.01-.97-9.42,0-17.14,3.58-23.14,10.72-6.01,7.15-9.01,16.89-9.01,29.23Z"/>
    <path class="st0" d="M1034.37,110.7c-6.17,0-11.45-2.03-15.83-6.09-4.39-4.06-6.58-9.01-6.58-14.86,0-5.52,2.19-10.31,6.58-14.37,4.38-4.06,9.66-6.09,15.83-6.09,5.85,0,10.88,2.03,15.1,6.09,4.22,4.07,6.33,8.85,6.33,14.37,0,5.85-2.12,10.8-6.33,14.86-4.23,4.07-9.26,6.09-15.1,6.09ZM1033.89,286.09c-4.23,0-8.04-1.3-11.45-3.9-3.41-2.6-5.12-6.33-5.12-11.21v-116.93c0-5.52,1.71-9.66,5.12-12.42,3.41-2.76,7.22-4.14,11.45-4.14s8.04,1.39,11.45,4.14c3.41,2.76,5.11,6.9,5.11,12.42v116.93c0,4.87-1.71,8.61-5.11,11.21-3.41,2.6-7.23,3.9-11.45,3.9Z"/>
    <path class="st0" d="M1155.69,286.09c-14.3,0-27.21-3.25-38.73-9.74-11.53-6.49-20.55-15.51-27.04-27.04-6.5-11.53-9.74-24.44-9.74-38.73s3.24-26.47,9.74-37.52c6.49-11.04,15.51-19.73,27.04-26.07,11.53-6.33,24.44-9.5,38.73-9.5s27.12,3.17,38.49,9.5c11.37,6.33,20.38,15.03,27.04,26.07,6.65,11.05,9.99,23.55,9.99,37.52s-3.33,27.21-9.99,38.73c-6.66,11.53-15.68,20.55-27.04,27.04-11.37,6.49-24.2,9.74-38.49,9.74ZM1155.69,255.89c12.67,0,22.9-4.14,30.7-12.42,7.8-8.28,11.69-19.25,11.69-32.89s-3.9-23.39-11.69-31.18c-7.8-7.8-18.03-11.69-30.7-11.69s-23.31,3.9-30.94,11.69c-7.64,7.8-11.45,18.19-11.45,31.18,0,13.64,3.81,24.6,11.45,32.89,7.63,8.28,17.94,12.42,30.94,12.42Z"/>
    <path class="st0" d="M1311.12,286.09c-9.43,0-19-1.22-28.75-3.65-9.74-2.44-18.35-6.25-25.82-11.45-3.9-3.57-5.85-7.47-5.85-11.69s1.71-7.96,5.12-11.21c3.41-3.24,7.23-4.87,11.45-4.87,2.27,0,4.54.65,6.82,1.95,5.85,3.58,12.58,6.42,20.22,8.53,7.63,2.12,14.86,3.17,21.68,3.17s12.1-1.13,16.81-3.41c4.71-2.27,7.06-6.01,7.06-11.21s-2.28-9.09-6.82-11.69c-4.55-2.6-12.35-4.55-23.39-5.85-4.55-.65-9.99-1.46-16.32-2.44-6.33-.97-12.59-2.76-18.76-5.36-6.17-2.6-11.37-6.49-15.59-11.69-4.22-5.19-6.33-12.18-6.33-20.95,0-14.29,5.28-25.66,15.83-34.11,10.55-8.44,24.76-12.67,42.63-12.67,10.39,0,20.22,1.3,29.48,3.9,9.26,2.6,16.16,5.85,20.71,9.74,3.57,2.92,5.36,6.33,5.36,10.23,0,4.23-1.46,7.96-4.39,11.21-2.92,3.25-6.5,4.87-10.72,4.87-2.28,0-4.39-.49-6.33-1.46-5.2-2.92-10.96-5.12-17.3-6.58-6.33-1.46-12.43-2.19-18.27-2.19-6.82,0-12.59,1.06-17.3,3.17-4.71,2.12-7.06,5.44-7.06,9.99,0,3.25,1.38,6.09,4.14,8.53,2.76,2.44,9.99,4.47,21.68,6.09,5.52.65,11.77,1.63,18.76,2.92,6.98,1.3,13.72,3.33,20.22,6.09,6.49,2.76,11.85,7.06,16.08,12.91,4.22,5.85,6.33,13.81,6.33,23.87s-2.92,18.93-8.77,25.58c-5.85,6.66-13.4,11.62-22.66,14.86-9.26,3.24-19.25,4.87-29.96,4.87Z"/>
    <path class="st0" d="M1418.31,286.09c-4.22,0-8.04-1.3-11.45-3.9-3.41-2.6-5.12-6.33-5.12-11.21V85.85c0-5.52,1.71-9.66,5.12-12.42,3.41-2.76,7.23-4.14,11.45-4.14s8.04,1.39,11.45,4.14c3.41,2.76,5.12,6.9,5.12,12.42v95.01c0,3.25.49,4.87,1.46,4.87s2.27-.65,3.9-1.95l60.42-43.36c3.57-1.95,6.82-2.92,9.74-2.92,4.54,0,8.28,1.54,11.21,4.63,2.92,3.09,4.39,6.42,4.39,9.99,0,5.53-2.6,9.91-7.8,13.15l-49.7,31.18c-2.92,1.95-4.39,3.9-4.39,5.85s1.13,4.07,3.41,6.33l53.11,50.18c3.57,4.23,5.36,8.12,5.36,11.69,0,4.22-1.63,7.88-4.87,10.96-3.25,3.08-6.99,4.63-11.21,4.63s-8.12-1.79-11.69-5.36l-57-56.52c-2.28-2.27-3.74-3.41-4.39-3.41-1.3,0-1.95,1.95-1.95,5.85v44.34c0,4.87-1.71,8.61-5.12,11.21-3.41,2.6-7.23,3.9-11.45,3.9Z"/>
    <path class="st0" d="M1616.12,286.09c-14.3,0-27.21-3.25-38.73-9.74-11.53-6.49-20.55-15.51-27.04-27.04-6.5-11.53-9.74-24.44-9.74-38.73s3.24-26.47,9.74-37.52c6.49-11.04,15.51-19.73,27.04-26.07,11.53-6.33,24.44-9.5,38.73-9.5s27.12,3.17,38.49,9.5c11.37,6.33,20.38,15.03,27.04,26.07,6.65,11.05,9.99,23.55,9.99,37.52s-3.33,27.21-9.99,38.73c-6.66,11.53-15.68,20.55-27.04,27.04-11.37,6.49-24.2,9.74-38.49,9.74ZM1616.12,255.89c12.67,0,22.9-4.14,30.7-12.42,7.8-8.28,11.69-19.25,11.69-32.89s-3.9-23.39-11.69-31.18c-7.8-7.8-18.03-11.69-30.7-11.69s-23.31,3.9-30.94,11.69c-7.64,7.8-11.45,18.19-11.45,31.18,0,13.64,3.81,24.6,11.45,32.89,7.63,8.28,17.94,12.42,30.94,12.42Z"/>
    <path class="st0" d="M1821.73,153.57c0-4.54,1.54-8.36,4.63-11.45,3.08-3.08,7.06-4.63,11.94-4.63,4.54,0,8.44,1.54,11.69,4.63,3.24,3.09,4.87,6.9,4.87,11.45v68.7c0,14.62-3.25,26.64-9.74,36.05-6.5,9.43-14.94,16.41-25.34,20.95-10.4,4.55-21.44,6.82-33.13,6.82s-22.74-2.28-33.13-6.82c-10.4-4.54-18.84-11.53-25.34-20.95-6.5-9.42-9.74-21.44-9.74-36.05v-68.7c0-4.54,1.54-8.36,4.63-11.45,3.08-3.08,7.06-4.63,11.94-4.63,4.54,0,8.44,1.54,11.69,4.63,3.24,3.09,4.87,6.9,4.87,11.45v68.7c0,12.02,3.57,20.63,10.72,25.82,7.14,5.2,15.26,7.8,24.36,7.8s17.62-2.6,24.6-7.8c6.98-5.19,10.48-13.8,10.48-25.82v-68.7Z"/>
    <path class="st0" d="M1967.4,286.09c-9.1,0-17.22-1.54-24.36-4.63-7.15-3.08-13.32-7.22-18.51-12.42v67.72c0,4.87-1.71,8.6-5.12,11.21-3.41,2.6-7.23,3.9-11.45,3.9s-8.04-1.3-11.45-3.9c-3.41-2.6-5.12-6.33-5.12-11.21v-180.27c0-5.52,1.71-9.66,5.12-12.42,3.41-2.76,7.23-4.14,11.45-4.14,3.9,0,7.47,1.22,10.72,3.65,3.24,2.44,5.19,5.93,5.85,10.48,5.19-4.87,11.37-8.85,18.51-11.94,7.14-3.08,15.26-4.63,24.36-4.63,14.29,0,26.87,3.17,37.76,9.5,10.88,6.33,19.41,15.03,25.58,26.07,6.17,11.05,9.26,23.55,9.26,37.52s-3.09,27.21-9.26,38.73c-6.17,11.53-14.7,20.55-25.58,27.04-10.89,6.49-23.47,9.74-37.76,9.74ZM1964.48,255.89c12.67,0,22.9-4.14,30.7-12.42,7.8-8.28,11.69-19.25,11.69-32.89s-3.9-23.39-11.69-31.18c-7.8-7.8-18.03-11.69-30.7-11.69s-22.09,3.9-29.23,11.69c-7.15,7.8-10.72,18.19-10.72,31.18,0,13.64,3.57,24.6,10.72,32.89,7.14,8.28,16.89,12.42,29.23,12.42Z"/>
  </g>
  <g>
    <circle class="st0" cx="215.53" cy="215.53" r="215.53"/>
    <path d="M323.17,100.36c-26.74-36.73-86.44-16.94-122.47-6.92-65.53,20.49-113.57,63.98-95.35,138.23,1.89,11.18,3.66,23.24,5.34,35.63-13-2.93-25.5-7.95-36.9-15.65,10.39,10.56,23.67,18.52,37.97,23.67,3.18,24.21,6.09,49.26,9.05,71.34,0,0,3.96,30.94,3.96,30.94,8.42-17.04,22.02-38.41,28.04-56.44,4.57-11.96,5.24-24.87,7.1-37.39,67.23,1.81,143.64-32.55,171.14-91.83,13.5-28.74,9.48-65.06-7.88-91.58ZM139.56,312.89c-.22-10.33-.49-20.65-.89-30.97,3.5.53,7.05.94,10.63,1.25-2.97,10.03-5.34,20.31-9.75,29.72ZM302.42,180.12c-21.76,51.99-85.42,81.82-139.45,89.17.98-3.28,2.2-6.5,3.77-9.62,4.36-8.93,12.41-17.1,23.16-16.72-10.98-2.95-22.15,4.78-28.36,13.48-3.24,4.31-5.71,8.93-7.72,13.73-5.2.36-10.42.5-15.63.38-.7-14.62-1.72-29.27-3.3-44.03-2.98-19.5-2.35-40.63,8.71-56.39,24.55-33.57,72.05-44.58,111.27-53.15,12.83-1.79,29.74-5.64,39.49,2.37,12.5,17.57,16.05,40.3,8.07,60.76Z"/>
  </g>
</svg>